<svg width="1600" height="900" viewBox="0 0 1600 900" fill="none" xmlns="http://www.w3.org/2000/svg">
<rect width="1600" height="900" fill="#E5E5E5"/>
<g id="fondoweb 1 1" clip-path="url(#clip0_0_1)">
<g id="fondoweb 1">
<g id="Layer 1">
<path id="sector4" d="M1600.63 0H0V901.17H1600.63V0Z" fill="#D9D9D9"/>
<path id="sector3" d="M0 655.397C26.0914 672.209 70.2157 658.718 90.9785 636.408C111.741 614.098 120.456 584.506 131.585 556.893C142.715 529.281 158.963 500.691 187.496 487.887C240.781 463.793 305.458 505.456 362.418 490.33C402.316 479.725 427.594 444.464 459.171 419.466C482.769 400.744 510.692 387.348 540.764 380.321C570.837 373.295 602.246 372.829 632.544 378.959C662.841 385.089 691.209 397.65 715.436 415.662C739.662 433.675 759.094 456.652 772.215 482.804C804.632 547.363 797.991 629.126 849.203 682.103C892.198 726.552 964.041 736.106 1027.69 727.773C1091.35 719.441 1151.85 696.422 1215.24 686.672C1355.31 665.169 1505.56 607.39 1600.63 705.5V0H0V655.397Z" fill="#FAFAFA"/>
<path id="sector2" d="M1599.62 249.15C1557.22 232.959 1501.53 207.397 1457.62 220C1413.71 232.602 1369.54 282.902 1323.5 285.5C1227.01 290.946 1154.62 166 1043.62 264C1034.12 277.5 960.625 302 896.125 264C840.625 221 797.217 185.448 771.625 135.156C746.034 84.864 665.48 48 585 48C499.5 48 438.725 184.688 347.725 135.156C256.725 85.624 195.173 100.632 146.225 107.5C97.2767 114.368 75.7754 270.977 -1 236.5V178.673V-285H1599.62V249.15Z" fill="#3E3E3E"/>
<path id="sector1" d="M0 46.114C6.567 78.752 56.5231 100.111 87.2473 98.131C117.971 96.151 145.803 78.701 172.436 61.93C199.069 45.159 227.161 27.991 257.885 26.803C292.492 25.333 324.858 43.971 358.683 51.946C465.527 77.033 579.746 -4.44801 682.134 36.674C735.53 58.112 773.343 108.709 811.989 154.13C850.635 199.551 897.647 244.35 954.508 247.264C1020.83 250.657 1081.65 195.733 1147.74 202.549C1184.09 206.311 1216.93 228.512 1253.05 234.169C1313.95 243.728 1371.38 205.887 1425.46 174.041C1479.53 142.195 1545.49 114.846 1600.63 144.429V-202H0V-76.772V46.114Z" fill="#FFB500"/>
</g>
</g>
</g>
<defs>
<clipPath id="clip0_0_1">
<rect width="1600" height="900" fill="white"/>
</clipPath>
</defs>
</svg>
