<svg width="1600" height="900" viewBox="0 0 1600 900" fill="none" xmlns="http://www.w3.org/2000/svg">
<rect width="1600" height="900" fill="#E5E5E5"/>
<g id="fondoweb 1 1" clip-path="url(#clip0_0_1)">
<g id="fondoweb 1">
<g id="Layer 1">
<path id="sector4" d="M1600 0H0V900H1600V0Z" fill="#D9D9D9"/>
<path id="sector3" d="M1600 724.572C1573.92 717.057 1529.81 723.088 1509.06 733.061C1488.3 743.034 1479.59 756.262 1468.47 768.606C1457.34 780.949 1441.1 793.729 1412.58 799.453C1359.31 810.224 1294.66 791.599 1237.72 798.361C1197.84 803.102 1172.57 818.864 1141.01 830.039C1117.42 838.408 1089.51 844.396 1059.45 847.538C1029.39 850.678 997.991 850.887 967.705 848.146C937.42 845.406 909.063 839.791 884.846 831.739C860.629 823.687 841.205 813.416 828.089 801.725C795.685 772.866 802.323 736.316 751.131 712.634C708.153 692.764 636.338 688.494 572.714 692.219C509.08 695.943 448.603 706.233 385.238 710.592C245.223 720.204 95.0326 746.033 0 702.175V1017.55L1600 1017.55V724.572Z" fill="#FAFAFA"/>
<path id="sector1" d="M1600 855.25C1593.44 836.078 1543.5 823.531 1512.79 824.694C1482.08 825.857 1454.25 836.108 1427.63 845.96C1401.01 855.811 1372.93 865.896 1342.22 866.594C1307.62 867.458 1275.27 856.509 1241.46 851.824C1134.66 837.088 1020.48 884.952 918.135 860.796C864.76 848.202 826.961 818.48 788.331 791.799C749.7 765.117 702.706 738.801 645.868 737.089C579.572 735.096 518.776 767.36 452.712 763.356C416.376 761.146 383.549 748.104 347.443 744.781C286.567 739.166 229.16 761.395 175.101 780.102C121.052 798.81 55.1183 814.875 0 797.497V1001L1600 1001V927.437V855.25Z" fill="#FFB500"/>
</g>
</g>
</g>
<defs>
<clipPath id="clip0_0_1">
<rect width="1600" height="900" fill="white"/>
</clipPath>
</defs>
</svg>
