<svg width="1600" height="900" viewBox="0 0 1600 900" fill="none" xmlns="http://www.w3.org/2000/svg">
<g id="fondoweb 1" clip-path="url(#clip0_1_3)">
<g id="Layer 1">
<path id="sector4" d="M1600.63 0H0V901.17H1600.63V0Z" fill="#D9D9D9"/>
<path id="sector3" d="M0 655.397C26.0914 672.209 70.2157 658.718 90.9785 636.408C111.741 614.098 120.456 584.506 131.585 556.893C142.715 529.281 158.963 500.691 187.496 487.887C240.781 463.793 305.458 505.456 362.418 490.33C402.316 479.725 427.594 444.464 459.171 419.466C482.769 400.744 510.692 387.348 540.764 380.321C570.837 373.295 602.246 372.829 632.544 378.959C662.841 385.089 691.209 397.65 715.436 415.662C739.662 433.675 759.094 456.652 772.215 482.804C804.632 547.363 797.991 629.126 849.203 682.103C892.198 726.552 964.041 736.106 1027.69 727.773C1091.35 719.441 1151.85 696.422 1215.24 686.672C1355.31 665.169 1505.56 714.114 1600.63 812.224V0H0V655.397Z" fill="#FAFAFA"/>
<path id="sector2" d="M1601.4 534.15C1559 517.959 1510.16 525.673 1466.25 538.276C1422.34 550.878 1379.3 568.183 1333.26 570.781C1236.77 576.227 1147.32 516.268 1050.68 519.465C1000.42 521.136 951.271 539.967 901.275 534.975C836.676 528.54 821.253 470.448 795.661 420.156C770.07 369.864 665 312 583 303C490 292.793 440.5 469.688 349.5 420.156C258.5 370.624 196.948 385.632 148 392.5C99.0521 399.368 77.5508 555.977 0.775391 521.5V463.673V0H1601.4V534.15Z" fill="#3E3E3E"/>
<path id="sector1" d="M0 248.114C6.567 280.752 56.5231 302.111 87.2473 300.131C117.971 298.151 145.803 280.701 172.436 263.93C199.069 247.159 227.161 229.991 257.885 228.803C292.492 227.333 324.858 245.971 358.683 253.946C465.527 279.033 579.746 197.552 682.134 238.674C735.53 260.112 773.343 310.709 811.989 356.13C850.635 401.551 897.647 446.35 954.508 449.264C1020.83 452.657 1081.65 397.733 1147.74 404.549C1184.09 408.311 1216.93 430.512 1253.05 436.169C1313.95 445.728 1371.38 407.887 1425.46 376.041C1479.53 344.195 1545.49 316.846 1600.63 346.429V0H0V125.228V248.114Z" fill="#FFB500"/>
</g>
</g>
<defs>
<clipPath id="clip0_1_3">
<rect width="1600" height="900" fill="white"/>
</clipPath>
</defs>
</svg>
