<?xml version="1.0" encoding="utf-8"?>
<!-- Generator: Adobe Illustrator 25.0.0, SVG Export Plug-In . SVG Version: 6.00 Build 0)  -->
<svg version="1.1" xmlns="http://www.w3.org/2000/svg" xmlns:xlink="http://www.w3.org/1999/xlink" x="0px" y="0px"
	 viewBox="0 0 750 500" style="enable-background:new 0 0 750 500;" xml:space="preserve">
<style type="text/css">
	.st0{fill:none;stroke:#4B4D4F;stroke-width:5.0738;stroke-linecap:round;stroke-linejoin:round;stroke-miterlimit:10;}
	.st1{fill:#60AC50;}
	.st2{fill:#FFFFFF;}
	.st3{fill:#FFFFFF;stroke:#4B4D4F;stroke-miterlimit:10;}
	.st4{fill:#1F3B53;stroke:#4B4D4F;stroke-width:2;stroke-linecap:round;stroke-linejoin:round;stroke-miterlimit:10;}
	.st5{fill:#4B4D4F;}
</style>
<g id="BACKGROUND">
</g>
<g id="OBJECTS">
	<path class="st0" d="M217.2,137.3c-10.2,28.4-145.3-90.9-154.1-17.6c-4.2,35,86.7,73.9,89.7,99.3"/>
	<polygon class="st1" points="448.6,319.1 270.7,100.1 103.2,186.1 110.2,196.9 103.2,186.1 99.4,208.1 78.7,212 189,495 
		284.1,466.8 	"/>
	<g>
		<path class="st2" d="M226.5,449.8c-5.5-9.9-10.9-20-16.4-29.9l-16.2-30.1c-5.4-10-10.7-20.1-16-30.1l-16-30.2l-15.8-30.3
			c-5.2-10.1-10.6-20.2-15.7-30.3l-15.6-30.4c-5.1-10.2-10.3-20.3-15.4-30.5c5.5,9.9,10.9,20,16.4,29.9l16.2,30.1
			c5.4,10,10.7,20.1,16,30.1l16,30.2l15.8,30.3c5.2,10.1,10.6,20.2,15.7,30.3l15.6,30.4C216.2,429.5,221.4,439.6,226.5,449.8z"/>
	</g>
	<g>
		<path class="st2" d="M189,495c2.7-4.1,5.7-8,8.7-11.9c3-3.9,6.1-7.7,9.2-11.5c3.1-3.8,6.3-7.5,9.6-11.1c3.3-3.7,6.6-7.3,10.1-10.7
			c-2.7,4.1-5.7,8-8.7,11.9c-3,3.9-6.1,7.7-9.2,11.5c-3.1,3.8-6.3,7.5-9.6,11.1C195.8,487.9,192.5,491.5,189,495z"/>
	</g>
	<g>
		<path class="st2" d="M284.1,466.8c-4.9-0.9-9.8-2.1-14.7-3.4c-4.9-1.2-9.7-2.6-14.5-4c-4.8-1.4-9.6-2.9-14.3-4.5
			c-4.8-1.6-9.5-3.3-14.1-5.1c4.9,0.9,9.8,2.1,14.7,3.4c4.9,1.2,9.7,2.6,14.5,4c4.8,1.4,9.6,2.9,14.3,4.5
			C274.7,463.3,279.4,464.9,284.1,466.8z"/>
	</g>
	<g>
		<path class="st2" d="M103.2,186.1c7.8,11.6,15.4,23.2,23.1,34.8l22.9,34.9c7.7,11.6,15.2,23.3,22.8,35l22.7,35l22.5,35.1
			c7.5,11.7,15.1,23.4,22.5,35.2l22.3,35.3c7.4,11.8,14.8,23.6,22.1,35.4c-7.8-11.6-15.4-23.2-23.1-34.8l-22.9-34.9
			c-7.7-11.6-15.2-23.3-22.8-35l-22.7-35l-22.5-35.2c-7.5-11.7-15.1-23.4-22.5-35.2l-22.3-35.3C118,209.7,110.5,197.9,103.2,186.1z"
			/>
	</g>
	<path class="st2" d="M159.1,187.6c-4.8,2.9-6.4,9.1-3.6,13.9c2.8,4.8,9.1,6.5,13.9,3.6c4.8-2.9,6.4-9.1,3.6-13.9
		C170.1,186.4,163.9,184.8,159.1,187.6z M166.8,200.9c-2.5,1.5-5.6,0.6-7.1-1.8c-1.5-2.5-0.6-5.7,1.8-7.1c2.5-1.5,5.6-0.6,7.1,1.8
		C170.1,196.2,169.3,199.4,166.8,200.9z"/>
	<path class="st2" d="M251.6,140.2c-4.8,2.9-6.4,9.1-3.6,13.9c2.8,4.8,9.1,6.5,13.9,3.6c4.8-2.9,6.4-9.1,3.6-13.9
		C262.6,139,256.4,137.3,251.6,140.2z M259.3,153.4c-2.5,1.5-5.6,0.6-7.1-1.8c-1.5-2.5-0.6-5.7,1.8-7.1c2.5-1.5,5.6-0.6,7.1,1.8
		C262.6,148.8,261.8,152,259.3,153.4z"/>
	<path class="st0" d="M164.2,196.4c29.7-4.4-60.4-160.8,13-155.1C212.2,44,232.4,141,256.7,149"/>
	<g>
		<g>
			<path class="st3" d="M438.2,365.4l-5.8,0.3c-9.5,0.5-19.1,0.1-28.5-1.4c-8.2-1.2-15.1-2.2-20.7-3c-23.3-3.2-26.3-3.6-27.6-11.1
				c-0.4-2.7,0.2-5.5,1.8-7.7c1.6-2.3,4-3.7,6.7-4.2l20.5-0.2c0.2,0,0.3-0.1,0.4-0.2c0,0,0.1-0.1,0.1-0.2c0.1-0.2,0-0.5-0.2-0.6
				l-61.7-44.6c-4.6-3.3-5.7-9.8-2.4-14.5c1.6-2.2,4-3.7,6.7-4.2c2.7-0.4,5.5,0.2,7.7,1.8l27.1,19.6c0.2,0.2,0.6,0.1,0.8-0.1
				c0.2-0.3,0.1-0.6-0.1-0.8c-4.6-3.3-5.7-9.8-2.4-14.5c1.6-2.3,4-3.7,6.7-4.2c2.7-0.4,5.5,0.2,7.7,1.8l8.2,5.9
				c0.2,0.2,0.6,0.1,0.8-0.1c0.2-0.3,0.1-0.6-0.1-0.8c-4.6-3.3-5.7-9.8-2.4-14.5c1.6-2.2,4-3.7,6.7-4.2c2.7-0.5,5.5,0.2,7.7,1.8
				l6.9,5c0.2,0.2,0.6,0.1,0.8-0.1s0.1-0.6-0.1-0.8c-4.6-3.3-5.7-9.8-2.4-14.5c1.6-2.3,4-3.7,6.7-4.2c2.7-0.4,5.5,0.2,7.7,1.8
				l17.6,12.7c11.7,8.5,22.1,18.6,30.9,30.2l12.1,16L438.2,365.4z"/>
			<path class="st4" d="M321.4,278.6c1.5-2.1,3.8-3.5,6.4-3.9c2.6-0.4,5.2,0.2,7.3,1.7l27.1,19.6c0.5,0.4,1.2,0.2,1.6-0.3
				c0.4-0.5,0.2-1.2-0.3-1.6c-4.4-3.2-5.4-9.3-2.2-13.7c1.5-2.1,3.8-3.5,6.4-3.9c2.6-0.4,5.2,0.2,7.3,1.7l8.2,5.9
				c0.5,0.4,1.2,0.2,1.6-0.3c0.4-0.5,0.2-1.2-0.3-1.6c-4.4-3.2-5.4-9.3-2.2-13.7c1.5-2.1,3.8-3.5,6.4-3.9c2.6-0.4,5.2,0.2,7.3,1.7
				l6.9,5c0.5,0.4,1.2,0.2,1.6-0.3c0.4-0.5,0.2-1.2-0.3-1.6c-4.4-3.2-5.4-9.3-2.2-13.7c1.5-2.1,3.8-3.5,6.4-3.9
				c2.6-0.4,5.2,0.2,7.3,1.7l17.6,12.7c11.7,8.4,22,18.6,30.8,30.1l11.8,15.7l-37.8,52.7l-5.5,0.3c-9.5,0.5-19,0.1-28.4-1.3
				c-8.2-1.2-15.1-2.2-20.7-3c-23.7-3.3-26-3.8-27.1-10.6c-0.4-2.6,0.2-5.2,1.7-7.3c1.5-2.1,3.7-3.5,6.3-3.9l20.5-0.2
				c0.4,0,0.7-0.2,0.9-0.5c0.1-0.1,0.1-0.2,0.2-0.3c0.1-0.5,0-1-0.4-1.2l-61.7-44.6C319.3,289.1,318.3,283,321.4,278.6 M320.5,277.9
				c-3.5,4.9-2.4,11.7,2.5,15.2l61.7,44.6l-20.6,0.2c-3,0.5-5.5,2.1-7.1,4.4c-1.6,2.3-2.4,5.2-1.9,8.1c1.6,9.8,6.6,8.1,48.7,14.5
				c9.5,1.4,19,1.9,28.6,1.4l6-0.3l38.6-53.8l-12.3-16.3c-8.8-11.6-19.2-21.8-31-30.3l-17.6-12.7c-2.4-1.8-5.4-2.4-8.1-1.9
				c-2.8,0.4-5.3,1.9-7.1,4.4c-3.5,4.9-2.4,11.7,2.5,15.2l-6.9-5c-2.4-1.8-5.4-2.4-8.1-1.9c-2.7,0.4-5.3,2-7.1,4.4
				c-3.5,4.9-2.4,11.7,2.5,15.2l-8.2-5.9c-2.4-1.8-5.4-2.4-8.1-1.9c-2.8,0.4-5.3,2-7.1,4.4c-3.5,4.9-2.4,11.7,2.5,15.2l-27.1-19.6
				c-2.4-1.8-5.4-2.4-8.1-1.9C324.9,274,322.3,275.5,320.5,277.9L320.5,277.9z"/>
		</g>
		<g>
			<path class="st3" d="M459.4,374.1c-1.6,2.3-4.8,2.8-7.1,1.2l-13.9-10l38-52.9l13.9,10c2.3,1.6,2.8,4.8,1.2,7.1L459.4,374.1z"/>
			<path class="st4" d="M476.4,313l13.5,9.7c2,1.5,2.5,4.3,1,6.3l-32,44.7c-1.5,2-4.3,2.5-6.3,1l-13.5-9.7L476.4,313 M476.2,311.5
				l-38.6,53.8l14.4,10.4c2.5,1.8,6,1.2,7.9-1.3l32-44.7c1.8-2.5,1.2-6.1-1.3-7.9L476.2,311.5L476.2,311.5z"/>
		</g>
		<path class="st4" d="M385.5,311.4L385.5,311.4c-0.4,0.5-1.1,0.6-1.5,0.3L362.3,296l1.3-1.8l21.6,15.6
			C385.7,310.2,385.8,310.9,385.5,311.4z"/>
		<path class="st4" d="M396.9,292.7L396.9,292.7c-0.4,0.5-1.1,0.6-1.5,0.3l-12.1-8.8l1.3-1.8l12.1,8.8
			C397.1,291.5,397.2,292.2,396.9,292.7z"/>
		<path class="st4" d="M416.2,279.7L416.2,279.7c-0.4,0.5-1.1,0.6-1.5,0.3l-12.1-8.8l1.3-1.8l12.1,8.8
			C416.5,278.6,416.6,279.2,416.2,279.7z"/>
	</g>
	<g>
		<polygon class="st2" points="309.1,271.2 273.2,259.5 286.6,240.8 		"/>
		<polygon class="st2" points="348,264.8 359.7,228.8 378.3,242.3 		"/>
		<polygon class="st2" points="315.4,310.2 303.8,346.2 285.1,332.8 		"/>
		<polygon class="st2" points="326.8,257.5 309.7,223.7 332.4,220 		"/>
		<polygon class="st2" points="301.8,292.4 268.1,309.6 264.4,286.8 		"/>
	</g>
	<path class="st5" d="M285.1,37.1c1.1,7-1.8,13.5-8.8,19.5c-7,6-16.4,10-28.2,12l0.5,3.2c1,6,2.9,10.3,5.6,12.9
		c2.7,2.6,6,3.6,9.9,2.9c5.2-0.9,11.2-4.8,17.8-11.8l4.9,4.5c-2.4,3.4-5.8,6.5-10.1,9.4c-4.3,2.9-9.1,4.8-14.2,5.6
		c-7.8,1.3-13.8,0-18.2-3.9c-4.4-3.9-7.1-9.1-8.1-15.5c-2.2-13.5-0.8-25,4.2-34.2c5.1-9.3,12.7-14.8,22.9-16.5
		c6.4-1.1,11.4-0.4,15.1,2C282.2,29.7,284.4,33,285.1,37.1z M263.4,32c-5.2,0.9-9.1,4-11.8,9.5c-2.7,5.5-4,12.2-4,20.1
		c8.3-1.4,14.8-4.2,19.4-8.4c4.6-4.2,6.5-9,5.6-14.3c-0.4-2.3-1.4-4.1-3-5.4C268.1,32.1,266,31.6,263.4,32z"/>
	<path class="st1" d="M340.5,159.9c-14,1.9-22-4.6-24-19.3c-2.1-15.2,0.4-27.4,7.4-36.4c3.8-4.9,8.5-7.7,14-8.4
		c5.5-0.7,10.1-0.2,13.8,1.7c3.7,1.9,5.9,4.9,6.5,9.2c0.3,2.4-0.1,4.7-1.3,6.9c-1.2,2.1-2.7,3.3-4.5,3.5c-3.6,0.5-5.8-0.8-6.5-3.9
		c1-2.4,1.4-4.4,1.2-6.2c-0.6-4.2-2.6-6.1-6.1-5.6c-5,0.7-8.8,4.8-11.4,12.4c-2.6,7.6-3.4,15.6-2.2,24.2c0.7,4.8,2.1,8.6,4.5,11.5
		c2.3,2.8,5.4,4,9.3,3.5c2.1-0.3,4.4-1.2,6.9-2.7c2.5-1.5,4.4-3,5.8-4.5l2.1-2.2l4,4.4c-1.8,2.5-4.6,5-8.4,7.5
		C347.6,157.9,343.9,159.4,340.5,159.9z"/>
	<path class="st1" d="M379,159.9c-4.9,0-8.6-1.3-11.2-4c-2.5-2.6-3.8-6.4-3.8-11.2c0-7.5,2-14,5.9-19.5c3.9-5.5,9.4-8.2,16.3-8.2
		c4.9,0,8.6,1.3,11.2,4c2.5,2.6,3.8,6.4,3.8,11.2c0,7.6-2,14.1-5.9,19.5C391.4,157.2,386,159.9,379,159.9z M379,155.7
		c3.5,0,6.6-2.4,9.4-7.1c2.8-4.7,4.2-10.5,4.2-17.2c0-6.7-2.2-10.1-6.4-10.1c-3.6,0-6.7,2.4-9.5,7.2c-2.8,4.8-4.1,10.5-4.1,17.2
		C372.6,152.3,374.7,155.7,379,155.7z"/>
	<path class="st1" d="M409.9,159.3c3.6-21.9,5.4-33.2,5.4-34.2c0-0.9-0.5-1.6-1.4-1.9c-0.9-0.4-2.4-0.5-4.5-0.5l-0.5-2.9l12.5-2.8
		l2.3,2.2l-0.9,8.2c4-6.9,8.8-10.4,14.6-10.4c3.4,0,6,0.9,7.8,2.6c1.8,1.7,2.6,4.2,2.6,7.4c4.1-6.6,8.8-10,14.3-10
		c3.3,0,5.9,0.8,7.7,2.5c1.8,1.7,2.7,4,2.7,7c0,1-0.1,2.2-0.4,3.6l-3.4,19.7c-0.3,1.5-0.5,2.4-0.5,2.7c0,0.9,0.6,1.3,1.8,1.3
		s2.8-0.6,4.7-1.7l0.9,2.8c-4,3.3-7.5,5-10.6,5c-2.1,0-3.5-0.4-4.1-1.2c-0.7-0.8-1-1.8-1-3c0-1.2,0.7-5.9,2.2-14
		c1.5-8.2,2.2-13,2.2-14.5c0-1.5-0.4-2.7-1.3-3.8c-0.9-1-2.2-1.6-3.9-1.6c-1.7,0-3.3,0.6-4.9,1.8c-1.6,1.2-2.9,2.8-4.1,4.9
		c-1.1,2.1-2.1,4.3-2.9,6.7c-0.9,2.4-1.6,5-2.2,8c-0.9,4.6-1.5,8.3-1.9,11.3c-0.4,3-0.6,4.5-0.6,4.7h-7.8c0.2-1.3,0.7-4.5,1.6-9.5
		c2.3-13,3.5-20.4,3.5-22.2c0-1.7-0.4-3.1-1.3-4.2c-0.9-1-2.1-1.6-3.5-1.6c-3.6,0-6.7,2.3-9.3,6.9c-2.6,4.6-4.5,10-5.4,16l-2.4,14.5
		H409.9z"/>
	<path class="st1" d="M483.5,159.3c3.6-21.9,5.4-33.2,5.4-34.2c0-0.9-0.5-1.6-1.4-1.9c-0.9-0.4-2.4-0.5-4.5-0.5l-0.5-2.9l12.5-2.8
		l2.3,2.2l-0.9,8.2c4-6.9,8.8-10.4,14.6-10.4c3.4,0,6,0.9,7.8,2.6c1.8,1.7,2.6,4.2,2.6,7.4c4.1-6.6,8.8-10,14.3-10
		c3.3,0,5.9,0.8,7.7,2.5c1.8,1.7,2.7,4,2.7,7c0,1-0.1,2.2-0.4,3.6l-3.4,19.7c-0.3,1.5-0.5,2.4-0.5,2.7c0,0.9,0.6,1.3,1.8,1.3
		c1.2,0,2.8-0.6,4.7-1.7l0.9,2.8c-4,3.3-7.5,5-10.6,5c-2.1,0-3.5-0.4-4.1-1.2c-0.7-0.8-1-1.8-1-3c0-1.2,0.7-5.9,2.2-14
		c1.5-8.2,2.2-13,2.2-14.5c0-1.5-0.4-2.7-1.3-3.8c-0.9-1-2.2-1.6-3.9-1.6c-1.7,0-3.3,0.6-4.9,1.8c-1.6,1.2-2.9,2.8-4.1,4.9
		c-1.1,2.1-2.1,4.3-2.9,6.7c-0.9,2.4-1.6,5-2.2,8c-0.9,4.6-1.5,8.3-1.9,11.3c-0.4,3-0.6,4.5-0.6,4.7h-7.8c0.2-1.3,0.7-4.5,1.6-9.5
		c2.3-13,3.5-20.4,3.5-22.2c0-1.7-0.4-3.1-1.3-4.2c-0.9-1-2.1-1.6-3.5-1.6c-3.6,0-6.7,2.3-9.3,6.9c-2.6,4.6-4.5,10-5.4,16l-2.4,14.5
		H483.5z"/>
	<path class="st1" d="M591.9,126.4c0,4.4-2.5,8.1-7.6,11.1c-5.1,3-11.5,4.5-19.3,4.5v2c0,3.8,0.7,6.6,2.2,8.5c1.5,1.9,3.5,2.8,6,2.8
		c3.4,0,7.6-1.8,12.6-5.4l2.7,3.3c-1.9,1.8-4.4,3.4-7.5,4.8c-3.1,1.3-6.3,2-9.7,2c-5.1,0-8.8-1.4-11.2-4.3
		c-2.4-2.8-3.5-6.3-3.5-10.3c0-8.5,2.1-15.4,6.3-20.6c4.2-5.2,9.7-7.8,16.4-7.8c4.2,0,7.3,0.9,9.4,2.8
		C590.8,121.6,591.9,123.8,591.9,126.4z M578.6,121.1c-3.4,0-6.2,1.5-8.5,4.6c-2.3,3.1-3.9,7-4.7,11.9c5.5,0,9.9-1.1,13.3-3.2
		c3.4-2.1,5.1-4.9,5.1-8.2c0-1.4-0.4-2.6-1.3-3.6C581.5,121.6,580.3,121.1,578.6,121.1z"/>
	<path class="st1" d="M599.7,159.3c3.6-21.9,5.3-33.2,5.3-34.2c0-0.9-0.5-1.6-1.4-1.9c-0.9-0.4-2.4-0.5-4.5-0.5l-0.5-2.9l12.8-2.8
		l2.3,2.2l-1.3,8.6c3.7-7.2,7.8-10.8,12.2-10.8c2.3,0,4,0.7,5.3,2.1c1.3,1.4,1.9,3,1.9,4.7c0,1.7-0.6,3.2-1.7,4.5
		c-1.1,1.2-2.5,1.9-4.2,1.9c-1.7,0-2.9-0.5-3.4-1.5c0.4-1,0.6-2.2,0.6-3.6c0-1.4-0.6-2.1-1.7-2.1c-2.1,0-4.3,2.1-6.8,6.2
		c-2.4,4.1-4.2,9.9-5.2,17.2l-1.8,12.9H599.7z"/>
	<path class="st1" d="M650.9,159.9c-10.5,0-15.8-5-15.8-15c0-10.3,3-18.2,9.1-23.5c3.3-2.9,7-4.4,11.1-4.4c4.1,0,7.5,0.8,10,2.4
		c2.6,1.6,3.9,3.8,3.9,6.7c0,1.7-0.6,3.1-1.7,4.4c-1.1,1.3-2.3,2-3.7,2c-2.7,0-4.2-1.1-4.4-3.2c1-1.5,1.5-2.8,1.5-4
		c0-2.8-1.3-4.3-4-4.3c-3.7,0-7,2.4-9.7,7.2c-2.7,4.8-4.1,10.1-4.1,15.9c0,3.3,0.7,5.9,2.2,8c1.4,2.1,3.6,3.2,6.5,3.2
		c1.6,0,3.4-0.4,5.4-1.2c2-0.8,3.6-1.6,4.7-2.4l1.8-1.2l2.5,3.3c-1.5,1.5-3.9,2.9-7,4.2C656.4,159.3,653.5,159.9,650.9,159.9z"/>
	<path class="st1" d="M709.3,126.4c0,4.4-2.5,8.1-7.6,11.1c-5.1,3-11.5,4.5-19.3,4.5v2c0,3.8,0.7,6.6,2.2,8.5c1.5,1.9,3.5,2.8,6,2.8
		c3.4,0,7.6-1.8,12.6-5.4l2.7,3.3c-1.9,1.8-4.4,3.4-7.5,4.8c-3.1,1.3-6.3,2-9.7,2c-5.1,0-8.8-1.4-11.2-4.3
		c-2.4-2.8-3.5-6.3-3.5-10.3c0-8.5,2.1-15.4,6.3-20.6c4.2-5.2,9.7-7.8,16.4-7.8c4.2,0,7.3,0.9,9.4,2.8
		C708.3,121.6,709.3,123.8,709.3,126.4z M696.1,121.1c-3.4,0-6.2,1.5-8.5,4.6c-2.3,3.1-3.9,7-4.7,11.9c5.5,0,9.9-1.1,13.3-3.2
		c3.4-2.1,5.1-4.9,5.1-8.2c0-1.4-0.4-2.6-1.3-3.6C699,121.6,697.7,121.1,696.1,121.1z"/>
</g>
</svg>
